<?xml version="1.0" encoding="utf-8"?>
<!-- Generator: Adobe Illustrator 17.0.0, SVG Export Plug-In . SVG Version: 6.00 Build 0)  -->
<!DOCTYPE svg PUBLIC "-//W3C//DTD SVG 1.1 Tiny//EN" "http://www.w3.org/Graphics/SVG/1.1/DTD/svg11-tiny.dtd">
<svg version="1.1" baseProfile="tiny" id="Layer_1" xmlns="http://www.w3.org/2000/svg" xmlns:xlink="http://www.w3.org/1999/xlink"
	 x="0px" y="0px" width="247px" height="76px" viewBox="0 0 247 76" xml:space="preserve">
<image width="247" height="76" xlink:href="913D3405FE10F3F0.jpg"  transform="matrix(1 0 0 1 -0.14 0.1524)">
</image>
<path d="M18.823,12.057c3.975,0,7.392,1.305,9.689,3.728c2.174,2.174,3.416,5.155,3.416,8.82c0,3.541-1.179,6.523-3.478,8.822
	c-2.299,2.421-5.652,3.788-9.628,3.788H-0.185v-37.27h28.387v5.962H6.46v6.15H18.823L18.823,12.057z M6.46,31.252h12.362
	c2.05,0,3.727-0.808,4.906-2.113c1.181-1.179,1.615-2.795,1.615-4.534c0-1.926-0.62-3.541-1.801-4.72
	c-1.242-1.242-2.919-1.864-5.032-1.864H6.46V31.252L6.46,31.252z M67.766,37.215V10.007L46.335,37.215h-6.087v-37.27h6.46V27.09
	L68.013-0.055h6.088v37.27H67.766L67.766,37.215z M113.852,37.215V5.907H99.689L96.46,29.015c-0.436,2.796-1.43,4.907-2.858,6.337
	c-1.615,1.428-3.79,2.111-6.523,2.111c-2.174,0-3.665-0.186-5.84-0.993l1.242-5.466c1.554,0.435,2.486,0.435,3.48,0.435
	c1.181,0,2.236-0.31,2.919-0.993c0.683-0.808,1.181-1.864,1.367-3.168l3.727-27.332h26.4v37.27H113.852L113.852,37.215z
	 M163.106,44.482l-0.808-7.267h-27.891l-0.683,7.267h-5.528v-13.23c2.98,0,4.347-0.932,5.279-2.113
	c0.993-1.304,1.677-3.292,1.989-5.466l3.353-23.728h26.214v31.307h3.665v13.23H163.106L163.106,44.482z M158.447,5.907h-13.915
	l-2.795,19.132c-0.436,2.484-0.808,4.287-2.237,6.213h18.947V5.907L158.447,5.907z M206.333,31.189v6.025h-29.816v-37.27h28.947
	v6.087h-22.239v8.634h19.879v6.025h-19.879v10.498H206.333L206.333,31.189z M243.04,23.177c-2.672,2.484-6.088,3.912-10.001,3.912
	h-11.306v10.125h-6.77v-37.27h18.076c4.41,0,8.261,1.801,10.933,4.969c1.926,2.423,3.105,5.218,3.105,8.697
	C247.077,17.399,245.461,20.754,243.04,23.177L243.04,23.177z M238.506,8.518c-1.305-1.554-3.292-2.486-5.715-2.486h-11.057v15.033
	h11.555c2.048,0,4.037-0.932,5.218-2.36c0.993-1.428,1.862-3.416,1.862-5.093C240.368,11.561,239.748,9.821,238.506,8.518
	L238.506,8.518z"/>
<path d="M15.379,66.407c-0.994,0-1.849,0.357-2.47,0.994c-0.606,0.606-1.009,1.493-1.009,2.502c0,1.055,0.357,1.879,0.963,2.485
	c0.637,0.667,1.522,1.055,2.516,1.055c1.166,0,2.021-0.403,2.812-1.134l0.885,0.963c-1.055,1.042-2.143,1.476-3.697,1.476
	c-1.444,0-2.64-0.528-3.51-1.398c-0.918-0.87-1.43-2.067-1.43-3.449c0-1.367,0.529-2.533,1.399-3.418
	c0.87-0.87,2.097-1.398,3.541-1.398c1.554,0,2.642,0.449,3.697,1.461l-0.885,0.977C17.399,66.764,16.545,66.407,15.379,66.407
	L15.379,66.407z M28.462,74.579v-8.031h-3.854l-0.822,6.026c-0.094,0.669-0.342,1.166-0.746,1.524
	c-0.39,0.357-0.902,0.543-1.539,0.543c-0.512,0-0.87-0.046-1.352-0.218l0.264-1.18c0.357,0.077,0.575,0.094,0.809,0.094
	c0.357,0,0.621-0.094,0.824-0.296c0.201-0.233,0.34-0.528,0.388-0.885l0.931-6.898h6.54v9.322H28.462L28.462,74.579z M36.883,72.964
	c-0.249,0.48-0.558,0.916-0.948,1.227c-0.356,0.294-0.807,0.48-1.367,0.48c-0.264,0-0.574-0.031-0.931-0.092l0.17-1.151h0.436
	c0.294,0,0.528-0.061,0.73-0.17c0.186-0.109,0.34-0.279,0.482-0.528l0.14-0.264l-4.148-7.209h1.709l3.2,5.779h0.094l2.889-5.779
	h1.631L36.883,72.964L36.883,72.964z M55.186,66.455c-0.357,0-0.637,0.031-0.87,0.17c-0.157,0.078-0.296,0.233-0.405,0.466
	l-0.916,1.833c-0.124,0.249-0.279,0.466-0.451,0.637l3.139,5.018h-1.74l-2.594-4.382c-0.203,0.048-0.436,0.063-0.669,0.063H49.61
	v4.319h-1.43v-4.319h-1.072c-0.233,0-0.466-0.015-0.667-0.063l-2.594,4.382h-1.74l3.137-5.018c-0.17-0.17-0.327-0.388-0.451-0.637
	l-0.916-1.833c-0.109-0.233-0.249-0.388-0.403-0.466c-0.233-0.14-0.512-0.17-0.87-0.17H42.23l-0.124-1.212
	c0.31-0.063,0.621-0.094,0.916-0.094c0.482,0,0.918,0.109,1.273,0.312c0.357,0.201,0.638,0.528,0.839,0.946l0.964,1.99
	c0.078,0.17,0.218,0.31,0.388,0.419c0.203,0.124,0.466,0.155,0.715,0.155h0.979v-3.713h1.43v3.713h0.977
	c0.249,0,0.514-0.031,0.715-0.155c0.172-0.109,0.312-0.249,0.388-0.419l0.964-1.99c0.203-0.419,0.482-0.746,0.839-0.946
	c0.357-0.203,0.792-0.312,1.273-0.312c0.296,0,0.606,0.031,0.918,0.094l-0.124,1.212H55.186L55.186,66.455z M61.931,68.303
	c1.134,0,1.988,0.357,2.564,0.964c0.512,0.543,0.839,1.289,0.839,2.158c0,0.885-0.327,1.663-0.885,2.221
	c-0.575,0.575-1.399,0.933-2.518,0.933h-4.598v-9.322h7.022v1.306h-5.561v1.74H61.931L61.931,68.303z M58.793,73.289h3.137
	c0.7,0,1.166-0.233,1.491-0.591c0.327-0.34,0.482-0.761,0.482-1.273c0-0.497-0.186-0.948-0.497-1.273
	c-0.357-0.357-0.807-0.545-1.552-0.545h-3.061V73.289L58.793,73.289z M74.703,74.579l-0.792-1.757h-5.267l-0.776,1.757h-1.539
	l4.133-9.322h1.677l4.133,9.322H74.703L74.703,74.579z M71.394,66.703H71.16l-1.958,4.816h4.164L71.394,66.703L71.394,66.703z
	 M87.911,72.964c-0.249,0.48-0.56,0.916-0.948,1.227c-0.357,0.294-0.807,0.48-1.367,0.48c-0.264,0-0.575-0.031-0.933-0.092
	l0.172-1.151h0.434c0.296,0,0.529-0.061,0.73-0.17c0.187-0.109,0.342-0.279,0.482-0.528l0.14-0.264l-4.147-7.209h1.709l3.199,5.779
	h0.094l2.89-5.779h1.631L87.911,72.964L87.911,72.964z M97.699,66.407c-0.994,0-1.849,0.357-2.47,0.994
	c-0.606,0.606-1.009,1.493-1.009,2.502c0,1.055,0.357,1.879,0.963,2.485c0.637,0.667,1.522,1.055,2.516,1.055
	c1.166,0,2.021-0.403,2.812-1.134l0.885,0.963c-1.055,1.042-2.143,1.476-3.697,1.476c-1.444,0-2.64-0.528-3.51-1.398
	c-0.918-0.87-1.43-2.067-1.43-3.449c0-1.367,0.529-2.533,1.399-3.418c0.87-0.87,2.097-1.398,3.541-1.398
	c1.554,0,2.642,0.449,3.697,1.461l-0.885,0.977C99.719,66.764,98.865,66.407,97.699,66.407L97.699,66.407z M107.628,66.548v8.031
	h-1.445v-8.031h-3.573v-1.29h8.591v1.29H107.628L107.628,66.548z M119.422,74.579l-0.793-1.757h-5.267l-0.776,1.757h-1.537
	l4.131-9.322h1.678l4.131,9.322H119.422L119.422,74.579z M116.112,66.703h-0.233l-1.958,4.816h4.164L116.112,66.703L116.112,66.703z
	 M129.288,74.579v-4.366h-5.282v4.366h-1.461v-9.322h1.461v3.667h5.282v-3.667h1.445v9.322H129.288L129.288,74.579z M140.708,73.413
	c-0.918,0.855-2.113,1.336-3.418,1.336c-1.321,0-2.548-0.497-3.464-1.367c-0.933-0.87-1.476-2.097-1.476-3.464
	c0-1.321,0.528-2.533,1.413-3.403c0.918-0.916,2.16-1.428,3.527-1.428c1.491,0,2.827,0.637,3.759,1.692
	c0.746,0.855,1.181,1.942,1.181,3.139C142.23,71.286,141.64,72.528,140.708,73.413L140.708,73.413z M139.869,67.479
	c-0.637-0.7-1.539-1.103-2.579-1.103c-1.009,0-1.927,0.42-2.548,1.088c-0.606,0.637-0.931,1.507-0.931,2.455
	c0,1.009,0.388,1.91,1.055,2.579c0.621,0.606,1.476,0.964,2.424,0.964c0.994,0,1.879-0.373,2.501-1.042
	c0.621-0.637,0.979-1.522,0.979-2.501C140.77,68.986,140.445,68.116,139.869,67.479L139.869,67.479z M151.414,70.229
	c0.31,0.436,0.466,0.948,0.466,1.539c0,0.792-0.281,1.461-0.824,1.973c-0.575,0.543-1.336,0.839-2.376,0.839h-4.848v-9.322h4.661
	c0.948,0,1.694,0.264,2.221,0.793c0.419,0.419,0.637,0.962,0.637,1.615c0,0.388-0.077,0.73-0.249,1.025
	c-0.155,0.264-0.388,0.482-0.683,0.683v0.063C150.839,69.622,151.181,69.919,151.414,70.229L151.414,70.229z M149.565,66.873
	c-0.249-0.233-0.591-0.357-1.166-0.357h-3.122v2.424h3.37c0.482,0,0.778-0.14,0.964-0.373c0.203-0.233,0.296-0.497,0.296-0.824
	C149.908,67.386,149.799,67.107,149.565,66.873L149.565,66.873z M150.139,70.743c-0.295-0.357-0.761-0.529-1.367-0.529h-3.495v3.107
	h3.418c0.621,0,1.055-0.201,1.367-0.497c0.249-0.264,0.403-0.652,0.403-1.071C150.466,71.332,150.357,70.991,150.139,70.743
	L150.139,70.743z M161.42,66.47c-0.357,0-0.621,0.031-0.87,0.155c-0.17,0.078-0.342,0.249-0.482,0.497l-1.057,1.818
	c-0.107,0.218-0.279,0.419-0.48,0.606l3.386,5.034h-1.755l-2.827-4.382c-0.203,0.048-0.42,0.063-0.652,0.063h-1.585v4.319h-1.445
	v-9.322h1.445v3.713h1.491c0.264,0,0.497-0.031,0.683-0.14c0.172-0.094,0.327-0.249,0.451-0.466l1.118-1.941
	c0.233-0.405,0.512-0.715,0.87-0.948c0.357-0.233,0.809-0.342,1.321-0.342c0.279,0,0.558,0.031,0.855,0.109l-0.157,1.227H161.42
	L161.42,66.47z M170.587,74.579v-7.194l-5.67,7.194h-1.382v-9.322h1.415v7.177l5.655-7.177h1.367v9.322H170.587L170.587,74.579z
	 M187.461,76.444l-0.203-1.864h-7.316l-0.186,1.864h-1.181v-3.154c0.7,0,1.072-0.264,1.336-0.591
	c0.264-0.356,0.449-0.885,0.528-1.459l0.855-5.982h6.431v8.031h0.933v3.154H187.461L187.461,76.444z M186.265,66.548h-3.728
	l-0.73,5.001c-0.109,0.7-0.279,1.258-0.7,1.74h5.158V66.548L186.265,66.548z M197.809,70.229c0.312,0.436,0.466,0.948,0.466,1.539
	c0,0.792-0.279,1.461-0.824,1.973c-0.574,0.543-1.336,0.839-2.376,0.839h-4.846v-9.322h4.661c0.947,0,1.692,0.264,2.221,0.793
	c0.419,0.419,0.637,0.962,0.637,1.615c0,0.388-0.078,0.73-0.249,1.025c-0.157,0.264-0.388,0.482-0.684,0.683v0.063
	C197.236,69.622,197.576,69.919,197.809,70.229L197.809,70.229z M195.961,66.873c-0.249-0.233-0.591-0.357-1.164-0.357h-3.124v2.424
	h3.372c0.482,0,0.776-0.14,0.964-0.373c0.201-0.233,0.294-0.497,0.294-0.824C196.303,67.386,196.194,67.107,195.961,66.873
	L195.961,66.873z M196.536,70.743c-0.296-0.357-0.761-0.529-1.367-0.529h-3.496v3.107h3.418c0.621,0,1.057-0.201,1.367-0.497
	c0.249-0.264,0.405-0.652,0.405-1.071C196.863,71.332,196.754,70.991,196.536,70.743L196.536,70.743z M207.46,73.259v1.321h-7.395
	v-9.322h7.177v1.336h-5.701v2.424h5.095v1.319h-5.095v2.921H207.46L207.46,73.259z M216.223,71.006
	c-0.638,0.621-1.508,0.979-2.627,0.979h-2.873v2.594h-1.491v-9.322h4.365c1.243,0,2.191,0.466,2.86,1.227
	c0.48,0.606,0.761,1.29,0.761,2.16C217.217,69.592,216.829,70.431,216.223,71.006L216.223,71.006z M215.259,67.261
	c-0.357-0.419-0.9-0.683-1.709-0.683h-2.827v4.101h2.952c0.73,0,1.258-0.279,1.569-0.652c0.31-0.373,0.528-0.902,0.528-1.382
	C215.772,68.085,215.602,67.619,215.259,67.261L215.259,67.261z M226.244,73.259v1.321h-7.395v-9.322h7.177v1.336h-5.701v2.424
	h5.095v1.319h-5.095v2.921H226.244L226.244,73.259z M235.071,74.579v-7.194l-5.67,7.194h-1.384v-9.322h1.415v7.177l5.655-7.177
	h1.367v9.322H235.071L235.071,74.579z M232.32,64.606c-0.543,0-1.04-0.155-1.461-0.482c-0.325-0.294-0.589-0.637-0.761-1.118
	l1.009-0.436c0.094,0.264,0.233,0.482,0.42,0.654c0.233,0.186,0.451,0.294,0.807,0.294c0.327,0,0.591-0.094,0.793-0.279
	c0.17-0.157,0.31-0.373,0.419-0.669l1.009,0.436c-0.155,0.466-0.419,0.839-0.776,1.118C233.377,64.451,232.895,64.606,232.32,64.606
	L232.32,64.606z"/>
</svg>
