<?xml version="1.0" encoding="utf-8"?>
<!-- Generator: Adobe Illustrator 17.0.0, SVG Export Plug-In . SVG Version: 6.00 Build 0)  -->
<!DOCTYPE svg PUBLIC "-//W3C//DTD SVG 1.1 Tiny//EN" "http://www.w3.org/Graphics/SVG/1.1/DTD/svg11-tiny.dtd">
<svg version="1.1" baseProfile="tiny" id="Layer_1" xmlns="http://www.w3.org/2000/svg" xmlns:xlink="http://www.w3.org/1999/xlink"
	 x="0px" y="0px" width="227px" height="77px" viewBox="0 0 227 77" xml:space="preserve">
<path fill="#231F20" d="M42.773,30.059c-2.733,2.547-6.273,4.1-10.248,4.1H27.43v4.348h-6.523V34.16h-5.093
	c-4.286,0-8.013-1.678-10.685-4.411c-2.67-2.67-4.161-6.335-4.161-10.498c0-3.79,1.305-7.267,3.479-9.752
	c2.733-3.168,6.708-5.155,11.367-5.155h5.093v-3.79h6.523v3.79h5.094c4.409,0,8.136,1.739,10.807,4.657
	c2.547,2.672,4.038,6.212,4.038,10.25C47.369,23.537,45.568,27.389,42.773,30.059L42.773,30.059z M20.908,10.431h-4.659
	c-2.67,0-5.218,1.117-6.894,3.043c-1.057,1.491-1.988,3.602-1.988,5.776c0,2.485,0.932,4.534,2.422,6.087
	c1.678,1.678,3.975,2.735,6.46,2.735h4.659V10.431L20.908,10.431z M38.425,12.916c-1.676-1.678-3.913-2.485-6.335-2.485H27.43
	v17.642h4.659c2.422,0,4.596-0.871,6.274-2.424c1.553-1.553,2.546-3.725,2.546-6.398C40.909,16.704,39.917,14.469,38.425,12.916
	L38.425,12.916z M82.958,38.508V11.3L61.527,38.508H55.44V1.238h6.46v27.145L83.206,1.238h6.087v37.27H82.958L82.958,38.508z
	 M126.62,24.469c-2.67,2.485-6.087,3.915-10,3.915h-11.306v10.125h-6.771V1.238h18.077c4.409,0,8.261,1.801,10.932,4.97
	c1.926,2.422,3.106,5.218,3.106,8.695C130.658,18.692,129.043,22.046,126.62,24.469L126.62,24.469z M122.086,9.81
	c-1.305-1.553-3.292-2.485-5.716-2.485h-11.057v15.032h11.555c2.049,0,4.038-0.932,5.218-2.36c0.994-1.43,1.864-3.417,1.864-5.094
	C123.95,12.853,123.329,11.115,122.086,9.81L122.086,9.81z M172.521,38.508V11.175h-0.25l-12.236,17.331h-2.422l-12.361-17.331
	h-0.248v27.333h-6.274V1.238h7.206l13.168,18.448l12.858-18.448h7.144v37.27H172.521L172.521,38.508z M219.911,38.508l-3.106-6.833
	h-19.878l-3.044,6.833h-7.019l16.522-37.27h7.144l16.524,37.27H219.911L219.911,38.508z M207.176,7.946h-0.746l-6.956,17.702h14.846
	L207.176,7.946L207.176,7.946z"/>
<path d="M5.41,67.7c-0.994,0-1.848,0.358-2.469,0.994c-0.606,0.606-1.009,1.49-1.009,2.501c0,1.057,0.356,1.879,0.962,2.485
	c0.638,0.668,1.522,1.057,2.517,1.057c1.166,0,2.02-0.403,2.812-1.134l0.886,0.964c-1.057,1.041-2.144,1.475-3.698,1.475
	c-1.445,0-2.64-0.528-3.511-1.398c-0.917-0.869-1.428-2.066-1.428-3.448c0-1.367,0.527-2.534,1.398-3.418
	c0.869-0.871,2.096-1.398,3.541-1.398c1.555,0,2.642,0.449,3.698,1.46L8.222,68.82C7.43,68.058,6.576,67.7,5.41,67.7L5.41,67.7z
	 M18.493,75.872v-8.031h-3.852l-0.824,6.027c-0.095,0.667-0.343,1.165-0.746,1.522c-0.388,0.356-0.901,0.544-1.538,0.544
	c-0.513,0-0.871-0.047-1.352-0.218l0.265-1.182c0.356,0.079,0.574,0.095,0.807,0.095c0.358,0,0.621-0.095,0.824-0.295
	c0.203-0.233,0.341-0.528,0.388-0.886l0.932-6.897h6.541v9.321H18.493L18.493,75.872z M26.915,74.256
	c-0.248,0.481-0.56,0.917-0.949,1.227c-0.356,0.295-0.807,0.481-1.367,0.481c-0.263,0-0.574-0.03-0.932-0.093l0.17-1.149h0.436
	c0.295,0,0.528-0.062,0.731-0.17c0.186-0.11,0.341-0.28,0.481-0.528l0.14-0.265l-4.149-7.207h1.71l3.2,5.779h0.093l2.89-5.779H31
	L26.915,74.256L26.915,74.256z M45.217,67.746c-0.358,0-0.636,0.032-0.869,0.172c-0.155,0.078-0.295,0.233-0.405,0.466l-0.917,1.833
	c-0.123,0.248-0.279,0.466-0.451,0.636l3.139,5.018h-1.74l-2.594-4.38c-0.203,0.046-0.435,0.061-0.668,0.061H39.64v4.319h-1.43
	v-4.319h-1.072c-0.233,0-0.466-0.015-0.668-0.061l-2.594,4.38h-1.74l3.139-5.018c-0.172-0.17-0.327-0.388-0.451-0.636l-0.917-1.833
	c-0.11-0.233-0.25-0.388-0.405-0.466c-0.233-0.14-0.511-0.172-0.869-0.172h-0.373l-0.125-1.21c0.312-0.062,0.623-0.095,0.918-0.095
	c0.481,0,0.917,0.11,1.273,0.311c0.358,0.203,0.638,0.528,0.839,0.949l0.964,1.988c0.078,0.17,0.218,0.311,0.388,0.419
	c0.203,0.125,0.466,0.155,0.714,0.155h0.979v-3.712h1.43v3.712h0.979c0.248,0,0.511-0.03,0.714-0.155
	c0.171-0.108,0.311-0.248,0.388-0.419l0.964-1.988c0.201-0.42,0.481-0.746,0.839-0.949c0.356-0.201,0.792-0.311,1.274-0.311
	c0.294,0,0.604,0.032,0.917,0.095l-0.125,1.21H45.217L45.217,67.746z M51.962,69.596c1.134,0,1.988,0.356,2.564,0.962
	c0.513,0.544,0.839,1.29,0.839,2.161c0,0.884-0.326,1.661-0.886,2.221c-0.574,0.574-1.398,0.932-2.517,0.932h-4.598v-9.321h7.022
	v1.305h-5.562v1.74H51.962L51.962,69.596z M48.824,74.582h3.138c0.699,0,1.166-0.233,1.492-0.591
	c0.326-0.341,0.481-0.761,0.481-1.273c0-0.498-0.186-0.949-0.496-1.274c-0.358-0.358-0.809-0.543-1.555-0.543h-3.06V74.582
	L48.824,74.582z M64.734,75.872l-0.792-1.755h-5.268l-0.776,1.755h-1.538l4.132-9.321h1.678l4.132,9.321H64.734L64.734,75.872z
	 M61.426,67.996h-0.235l-1.956,4.816h4.162L61.426,67.996L61.426,67.996z M77.942,74.256c-0.248,0.481-0.559,0.917-0.949,1.227
	c-0.356,0.295-0.807,0.481-1.366,0.481c-0.265,0-0.576-0.03-0.933-0.093l0.172-1.149H75.3c0.295,0,0.528-0.062,0.731-0.17
	c0.186-0.11,0.341-0.28,0.481-0.528l0.14-0.265l-4.147-7.207h1.708l3.2,5.779h0.093l2.89-5.779h1.63L77.942,74.256L77.942,74.256z
	 M87.73,67.7c-0.994,0-1.848,0.358-2.469,0.994c-0.606,0.606-1.009,1.49-1.009,2.501c0,1.057,0.356,1.879,0.962,2.485
	c0.638,0.668,1.522,1.057,2.517,1.057c1.166,0,2.02-0.403,2.812-1.134l0.886,0.964c-1.057,1.041-2.144,1.475-3.698,1.475
	c-1.445,0-2.64-0.528-3.511-1.398c-0.917-0.869-1.428-2.066-1.428-3.448c0-1.367,0.528-2.534,1.398-3.418
	c0.869-0.871,2.096-1.398,3.541-1.398c1.555,0,2.642,0.449,3.698,1.46l-0.886,0.979C89.75,68.058,88.896,67.7,87.73,67.7L87.73,67.7
	z M97.66,67.841v8.031h-1.445v-8.031h-3.573v-1.29h8.591v1.29H97.66L97.66,67.841z M109.452,75.872l-0.792-1.755h-5.266
	l-0.776,1.755h-1.538l4.132-9.321h1.678l4.132,9.321H109.452L109.452,75.872z M106.143,67.996h-0.233l-1.958,4.816h4.164
	L106.143,67.996L106.143,67.996z M119.319,75.872v-4.365h-5.281v4.365h-1.46v-9.321h1.46v3.666h5.281v-3.666h1.445v9.321H119.319
	L119.319,75.872z M130.739,74.707c-0.917,0.854-2.113,1.335-3.418,1.335c-1.32,0-2.547-0.496-3.464-1.367
	c-0.932-0.869-1.477-2.096-1.477-3.464c0-1.32,0.528-2.532,1.414-3.403c0.917-0.917,2.159-1.428,3.526-1.428
	c1.492,0,2.827,0.636,3.761,1.693c0.744,0.854,1.18,1.941,1.18,3.138C132.262,72.578,131.671,73.821,130.739,74.707L130.739,74.707z
	 M129.9,68.772c-0.636-0.699-1.538-1.104-2.579-1.104c-1.009,0-1.926,0.42-2.547,1.089c-0.606,0.636-0.932,1.506-0.932,2.454
	c0,1.009,0.388,1.911,1.055,2.579c0.623,0.606,1.477,0.962,2.424,0.962c0.994,0,1.88-0.373,2.501-1.04
	c0.621-0.638,0.979-1.522,0.979-2.501C130.802,70.28,130.476,69.409,129.9,68.772L129.9,68.772z M141.445,71.522
	c0.311,0.435,0.466,0.947,0.466,1.538c0,0.793-0.28,1.46-0.824,1.973c-0.574,0.544-1.335,0.839-2.377,0.839h-4.848v-9.321h4.66
	c0.949,0,1.695,0.263,2.223,0.792c0.419,0.42,0.636,0.964,0.636,1.615c0,0.388-0.078,0.731-0.248,1.026
	c-0.155,0.263-0.388,0.481-0.684,0.684v0.062C140.87,70.916,141.213,71.211,141.445,71.522L141.445,71.522z M139.597,68.166
	c-0.25-0.233-0.591-0.358-1.166-0.358h-3.123v2.424h3.371c0.483,0,0.778-0.14,0.964-0.373c0.203-0.233,0.295-0.496,0.295-0.824
	C139.938,68.679,139.83,68.399,139.597,68.166L139.597,68.166z M140.171,72.035c-0.295-0.358-0.761-0.528-1.367-0.528h-3.496v3.107
	h3.418c0.621,0,1.057-0.203,1.367-0.498c0.248-0.263,0.403-0.653,0.403-1.072C140.497,72.624,140.389,72.283,140.171,72.035
	L140.171,72.035z M151.451,67.763c-0.358,0-0.621,0.03-0.869,0.155c-0.172,0.078-0.343,0.248-0.483,0.496l-1.057,1.818
	c-0.108,0.218-0.278,0.42-0.481,0.606l3.388,5.033h-1.755l-2.829-4.38c-0.201,0.046-0.419,0.061-0.652,0.061h-1.585v4.319h-1.445
	v-9.321h1.445v3.712h1.492c0.263,0,0.496-0.03,0.684-0.138c0.17-0.095,0.326-0.25,0.451-0.466l1.117-1.943
	c0.233-0.403,0.513-0.714,0.871-0.947c0.356-0.233,0.807-0.343,1.32-0.343c0.28,0,0.559,0.032,0.854,0.11l-0.155,1.227H151.451
	L151.451,67.763z M160.618,75.872v-7.192l-5.67,7.192h-1.382v-9.321h1.413v7.177l5.656-7.177h1.367v9.321H160.618L160.618,75.872z
	 M177.492,77.735l-0.201-1.863h-7.317l-0.187,1.863h-1.18v-3.153c0.699,0,1.072-0.263,1.335-0.591
	c0.265-0.356,0.451-0.884,0.528-1.46l0.856-5.98h6.431v8.031h0.932v3.153H177.492L177.492,77.735z M176.297,67.841h-3.729
	l-0.731,5.001c-0.108,0.699-0.279,1.259-0.699,1.74h5.158V67.841L176.297,67.841z M187.84,71.522
	c0.312,0.435,0.468,0.947,0.468,1.538c0,0.793-0.28,1.46-0.824,1.973c-0.576,0.544-1.337,0.839-2.377,0.839h-4.848v-9.321h4.66
	c0.949,0,1.693,0.263,2.221,0.792c0.42,0.42,0.638,0.964,0.638,1.615c0,0.388-0.078,0.731-0.25,1.026
	c-0.155,0.263-0.388,0.481-0.684,0.684v0.062C187.267,70.916,187.608,71.211,187.84,71.522L187.84,71.522z M185.992,68.166
	c-0.248-0.233-0.589-0.358-1.165-0.358h-3.123v2.424h3.371c0.483,0,0.776-0.14,0.964-0.373c0.203-0.233,0.295-0.496,0.295-0.824
	C186.335,68.679,186.225,68.399,185.992,68.166L185.992,68.166z M186.568,72.035c-0.295-0.358-0.761-0.528-1.367-0.528h-3.496v3.107
	h3.418c0.621,0,1.057-0.203,1.367-0.498c0.248-0.263,0.403-0.653,0.403-1.072C186.894,72.624,186.786,72.283,186.568,72.035
	L186.568,72.035z M197.49,74.552v1.32h-7.395v-9.321h7.177v1.335h-5.702v2.424h5.096v1.32h-5.096v2.922H197.49L197.49,74.552z
	 M206.254,72.298c-0.636,0.621-1.507,0.979-2.625,0.979h-2.874v2.594h-1.492v-9.321h4.367c1.242,0,2.189,0.466,2.858,1.227
	c0.481,0.606,0.761,1.29,0.761,2.159C207.248,70.885,206.86,71.724,206.254,72.298L206.254,72.298z M205.29,68.555
	c-0.356-0.419-0.9-0.684-1.708-0.684h-2.827v4.102h2.952c0.729,0,1.257-0.28,1.568-0.653c0.311-0.373,0.528-0.9,0.528-1.382
	C205.803,69.378,205.632,68.912,205.29,68.555L205.29,68.555z M216.276,74.552v1.32h-7.395v-9.321h7.177v1.335h-5.702v2.424h5.096
	v1.32h-5.096v2.922H216.276L216.276,74.552z M225.101,75.872v-7.192l-5.67,7.192h-1.382v-9.321h1.413v7.177l5.656-7.177h1.365v9.321
	H225.101L225.101,75.872z M222.351,65.898c-0.544,0-1.04-0.155-1.46-0.481c-0.326-0.295-0.591-0.636-0.761-1.119l1.009-0.434
	c0.095,0.263,0.233,0.481,0.42,0.652c0.233,0.187,0.451,0.295,0.809,0.295c0.326,0,0.589-0.093,0.792-0.28
	c0.17-0.155,0.311-0.373,0.419-0.667l1.011,0.434c-0.155,0.466-0.42,0.839-0.778,1.119
	C223.408,65.743,222.927,65.898,222.351,65.898L222.351,65.898z"/>
</svg>
