<?xml version="1.0" encoding="utf-8"?>
<!-- Generator: Adobe Illustrator 17.0.0, SVG Export Plug-In . SVG Version: 6.00 Build 0)  -->
<!DOCTYPE svg PUBLIC "-//W3C//DTD SVG 1.1 Tiny//EN" "http://www.w3.org/Graphics/SVG/1.1/DTD/svg11-tiny.dtd">
<svg version="1.1" baseProfile="tiny" id="Layer_2" xmlns="http://www.w3.org/2000/svg" xmlns:xlink="http://www.w3.org/1999/xlink"
	 x="0px" y="0px" width="1793px" height="536px" viewBox="0 0 1793 536" xml:space="preserve">
<text transform="matrix(1 0 0 1 297.6401 420.9452)" font-family="'MyriadPro-Regular'" font-size="12">b32d33</text>
<text transform="matrix(1 0 0 1 297.6401 420.9452)" font-family="'MyriadPro-Regular'" font-size="12">b32d33</text>
<polygon fill="#9A2429" points="0.258,268.133 309.267,107.597 306.282,536.133 0.118,537.078 "/>
<polygon fill="#A1262D" points="0,0 688.594,0 424.681,513.154 1321.383,-0.008 1376.297,0 1376.173,295.99 1740.766,85.945 
	1738.735,536.945 306.024,536 309.009,107.93 0,268 "/>
<polygon fill="#B32D33" points="688.495,0 424.48,513.397 1321.544,0 "/>
<polygon fill="#B32D33" points="1376.173,0 1375.787,296.564 1740.766,85.945 1738.735,536.945 1796.323,536.945 1793,0 "/>
</svg>
